<svg xmlns="http://www.w3.org/2000/svg" width="175" height="69" viewBox="0 0 175 69" fill="none">
    <path d="M0 2.63432V0.893302H8.20035L16.593 22.2377H17.1512L25.5636 0.893302H33.5371V2.63432L21.6002 31.4516H12.1687L0 2.63432ZM36.0919 15.9858C36.0919 6.20629 43.1782 0 52.8303 0C62.4331 0 69.5687 6.20136 69.5687 15.9858H61.5026C61.5026 10.626 58.0519 7.42734 52.8303 7.42734C47.6086 7.42734 44.1579 10.6248 44.1579 15.9858C44.1579 21.39 47.6062 24.5861 52.8303 24.5861C58.0532 24.5861 61.5026 21.39 61.5026 15.9858H69.5687C69.5687 25.7628 62.4331 32.0159 52.8303 32.0159C43.1782 32.0221 36.0919 25.7628 36.0919 15.9858ZM72.1333 2.63432V0.893302H80.3349L88.7275 22.2377H89.287L97.6796 0.893302H105.652V2.63432L93.7224 31.4516H84.3032L72.1333 2.63432ZM116.428 0.893302H125.846L138.25 29.7106V31.4516H130.048L128.042 26.4676H114.237L112.233 31.4516H104.259V29.7106L116.428 0.893302ZM117.034 19.511H125.235L121.467 10.1085H120.768L117.034 19.511ZM151.117 10.8133H150.605V31.4516H142.679V0.904391H153.915L166.551 21.5427H167.063V0.894534H175V31.4418H163.801L151.117 10.8133Z" fill="white"/>
    <path d="M160.039 28.1347L158.439 34.3138L152.632 56.7413L152.45 57.4424L19.3497 62.451L13.2691 62.6814L20.857 33.3737L160.039 28.1347Z" fill="url(#paint0_linear_805_40)"/>
    <path d="M13.2606 63.0462C13.2064 63.0466 13.1527 63.0346 13.1038 63.0111C13.0549 62.9876 13.012 62.9532 12.9784 62.9106C12.9428 62.8658 12.9181 62.8133 12.9064 62.7572C12.8946 62.7012 12.8961 62.6432 12.9106 62.5878L20.496 33.2801C20.5163 33.2043 20.5602 33.137 20.6214 33.0878C20.6825 33.0386 20.7578 33.0102 20.8362 33.0066L160.022 27.7675C160.079 27.7647 160.136 27.7757 160.188 27.7998C160.24 27.8238 160.285 27.8601 160.32 27.9055C160.356 27.95 160.38 28.0024 160.391 28.0583C160.404 28.114 160.402 28.1719 160.388 28.2271L152.8 57.5348C152.78 57.6106 152.737 57.6781 152.675 57.7272C152.614 57.7763 152.539 57.8043 152.461 57.8071L13.2742 63.0462H13.2606ZM21.1344 33.7311L13.745 62.2958L152.166 57.0838L159.561 28.5216L21.1344 33.7311Z" fill="#171926"/>
    <path d="M44.2849 55.2479L40.6296 48.4058L39.3997 48.4575L37.5881 55.5276L33.9907 55.6791L38.2413 39.0908L41.8386 38.9405L40.1404 45.5657L40.8638 45.5349L48.2101 38.6731L52.6874 38.4858L44.0791 46.4578L48.745 55.0606L44.2849 55.2479ZM53.486 54.861L49.6323 55.0236L59.7552 38.1889L64.3914 37.9954L66.0059 54.3373L62.1509 54.4975L61.1687 41.8804L61.0356 41.8853L53.486 54.861ZM54.9155 48.3516L64.0217 47.9696L63.3192 50.7074L54.2155 51.0894L54.9155 48.3516ZM74.1853 54.2178C72.9442 54.2708 71.893 54.1081 71.0303 53.7336C70.1738 53.3528 69.5601 52.807 69.1891 52.096C68.8256 51.3802 68.7578 50.5386 68.9895 49.5726L72.6127 49.4211C72.5302 49.8252 72.5745 50.1751 72.7446 50.4733C72.9221 50.7641 73.2006 50.9846 73.5777 51.135C73.956 51.2853 74.4083 51.3481 74.9333 51.3259C75.4599 51.3081 75.9784 51.1911 76.4615 50.981C76.9098 50.7892 77.3144 50.5083 77.6508 50.1554C77.9736 49.8104 78.193 49.4186 78.3039 48.9812C78.4173 48.5388 78.3902 48.1532 78.2226 47.823C78.0624 47.4878 77.7715 47.2328 77.3501 47.059C76.9347 46.8841 76.406 46.8102 75.764 46.8373L74.1766 46.9038L74.8372 44.3286L76.4233 44.2609C76.9425 44.2436 77.4541 44.13 77.9317 43.9257C78.4001 43.7249 78.7907 43.4575 79.1062 43.1236C79.4242 42.7835 79.6386 42.3966 79.7508 41.958C79.8567 41.5428 79.8481 41.1817 79.7224 40.8774C79.6032 40.5654 79.3684 40.3113 79.0668 40.1677C78.7525 40.005 78.3545 39.9336 77.8714 39.9533C77.3887 39.973 76.9135 40.0799 76.4689 40.2687C76.0215 40.4535 75.6358 40.7074 75.3117 41.0302C74.9959 41.3398 74.7643 41.7249 74.6388 42.149L71.1918 42.2931C71.4594 41.3256 71.9712 40.4431 72.678 39.7303C73.429 38.9641 74.3229 38.3525 75.3092 37.9301C76.3487 37.4736 77.4651 37.2173 78.5997 37.1748C79.7754 37.1255 80.749 37.2906 81.5229 37.6701C82.2969 38.0484 82.8367 38.5819 83.1435 39.2682C83.4566 39.9496 83.4985 40.7271 83.268 41.6031C83.0376 42.528 82.5178 43.3552 81.7842 43.9639C81.0324 44.6108 80.1587 45.0359 79.1629 45.2441L79.1296 45.3735C80.3411 45.4782 81.1853 45.8614 81.6622 46.5255C82.1453 47.1835 82.2525 48.0287 81.9826 49.06C81.746 50.0051 81.2506 50.8565 80.4976 51.6143C79.7508 52.372 78.8302 52.9819 77.737 53.444C76.6095 53.9139 75.4062 54.1761 74.1853 54.2178ZM87.7243 37.0171L91.3131 36.8668L88.64 47.2993L88.7817 47.2932L98.806 36.5526L101.955 36.4207L97.7055 53.0078L94.1069 53.1594L96.7824 42.7182L96.6592 42.7244L86.5905 53.4736L83.4751 53.6042L87.7243 37.0171ZM100.677 52.8834L104.927 36.2963L108.523 36.1447L106.771 42.9893L114.073 42.6837L115.827 35.8392L119.415 35.6889L115.165 52.2759L111.576 52.4263L113.332 45.5755L106.03 45.8811L104.274 52.7318L100.677 52.8834ZM135.89 43.2024C135.427 45.0112 134.681 46.5662 133.653 47.8636C132.63 49.1623 131.429 50.1714 130.05 50.891C128.718 51.5949 127.246 51.9935 125.741 52.0578C124.229 52.1207 122.957 51.8422 121.927 51.2237C120.897 50.6052 120.195 49.6749 119.823 48.4354C119.45 47.1958 119.495 45.6754 119.956 43.8703C120.421 42.0615 121.164 40.509 122.187 39.2103C123.21 37.9116 124.407 36.9062 125.778 36.1916C127.115 35.4815 128.594 35.0798 130.106 35.0161C131.607 34.9545 132.873 35.2317 133.903 35.8503C134.941 36.4639 135.646 37.3904 136.018 38.63C136.397 39.8695 136.353 41.3937 135.89 43.2024ZM132.243 43.3552C132.544 42.1847 132.617 41.2039 132.463 40.4141C132.315 39.6243 131.97 39.0341 131.429 38.6472C130.886 38.2579 130.182 38.0817 129.311 38.1174C128.453 38.151 127.616 38.3983 126.876 38.837C126.122 39.2805 125.461 39.9114 124.895 40.7308C124.334 41.5501 123.904 42.5457 123.604 43.7175C123.304 44.8892 123.227 45.87 123.376 46.6598C123.53 47.4484 123.878 48.0386 124.419 48.4267C124.96 48.8161 125.666 48.9923 126.535 48.9553C127.394 48.9219 128.232 48.6746 128.971 48.2357C129.726 47.7922 130.384 47.1625 130.944 46.3432C131.51 45.5226 131.944 44.527 132.243 43.3552Z" fill="#171926"/>
    <path d="M156.931 63.3938L17.7501 68.6304L13.2691 62.6816L19.3497 62.4524L152.45 57.4426L156.931 63.3938Z" fill="url(#paint1_linear_805_40)"/>
    <path d="M17.7502 69C17.6939 69.0003 17.6383 68.9873 17.5879 68.962C17.5376 68.9367 17.494 68.8999 17.4606 68.8546L12.9808 62.9033C12.9411 62.85 12.9166 62.7868 12.9098 62.7207C12.9031 62.6545 12.9145 62.5877 12.9426 62.5274C12.9708 62.4671 13.0148 62.4156 13.0699 62.3783C13.125 62.3411 13.1892 62.3194 13.2556 62.3156L152.441 57.0766C152.5 57.0738 152.559 57.0856 152.612 57.1109C152.665 57.1363 152.712 57.1744 152.747 57.222L157.231 63.1732C157.272 63.2265 157.298 63.2901 157.306 63.3571C157.313 63.424 157.302 63.4917 157.273 63.5527C157.244 63.6127 157.199 63.6638 157.144 63.7005C157.088 63.7371 157.023 63.758 156.957 63.7609L17.7699 68.9975L17.7502 69ZM13.9827 63.0278L17.9264 68.2619L156.218 63.0611L152.275 57.8158L13.9827 63.0278Z" fill="#171926"/>
    <path d="M164.519 34.0859L156.931 63.3936L152.45 57.4424L152.632 56.7413L158.439 34.3138L160.038 28.1347L164.519 34.0859Z" fill="url(#paint2_linear_805_40)"/>
    <path d="M156.929 63.7609C156.873 63.7608 156.818 63.7477 156.768 63.7227C156.718 63.6977 156.674 63.6614 156.64 63.6167L152.16 57.663C152.126 57.6192 152.102 57.5679 152.092 57.5133C152.081 57.4587 152.083 57.4024 152.098 57.3488L159.686 28.0436C159.703 27.9769 159.738 27.9163 159.787 27.8687C159.837 27.8212 159.899 27.7887 159.966 27.775C160.033 27.762 160.102 27.768 160.166 27.7924C160.229 27.8168 160.285 27.8586 160.326 27.913L164.807 33.8593C164.84 33.9036 164.863 33.9548 164.875 34.0091C164.886 34.0635 164.884 34.1197 164.871 34.1735L157.283 63.4874C157.262 63.5654 157.216 63.6345 157.153 63.6839C157.089 63.7333 157.01 63.7604 156.929 63.7609ZM152.845 57.3624L156.774 62.5694L164.128 34.1624L160.192 28.9578L152.845 57.3624Z" fill="#171926"/>
    <path d="M162.178 37.6173C162.145 37.6173 162.112 37.6081 162.084 37.5907C162.055 37.5733 162.032 37.5484 162.017 37.5187L160.283 34.208C160.264 34.1756 160.255 34.1384 160.258 34.1012C160.26 34.0639 160.274 34.0282 160.296 33.9985C160.312 33.979 160.331 33.9628 160.353 33.9509C160.375 33.9391 160.4 33.9318 160.424 33.9295C160.462 33.9262 160.499 33.9347 160.531 33.9537C160.564 33.9727 160.589 34.0013 160.604 34.0355L162.338 37.3474C162.35 37.3689 162.356 37.3923 162.359 37.4165C162.361 37.4406 162.358 37.4648 162.351 37.4879C162.337 37.5342 162.306 37.5732 162.263 37.5963C162.237 37.6093 162.208 37.616 162.178 37.6161V37.6173ZM161.802 39.2265C161.769 39.2275 161.736 39.2189 161.708 39.2019C161.679 39.1849 161.656 39.1601 161.641 39.1304L159.907 35.8184C159.884 35.775 159.88 35.7247 159.893 35.6779C159.9 35.6548 159.911 35.6333 159.926 35.6147C159.941 35.596 159.96 35.5805 159.981 35.5692C160.002 35.5578 160.025 35.5508 160.049 35.5485C160.073 35.5462 160.097 35.5487 160.12 35.5559C160.167 35.5704 160.206 35.6027 160.229 35.6459L161.961 38.9579C161.984 39.0008 161.988 39.0507 161.974 39.097C161.96 39.1433 161.929 39.1823 161.886 39.2055C161.86 39.219 161.831 39.2262 161.802 39.2265ZM147.786 62.1948C147.756 62.1945 147.726 62.1868 147.7 62.1724C147.673 62.1581 147.65 62.1374 147.633 62.1122L144.816 57.8244C144.796 57.7941 144.786 57.7586 144.786 57.7223C144.786 57.6861 144.797 57.6507 144.817 57.6206C144.838 57.5906 144.866 57.5672 144.9 57.5535C144.934 57.5398 144.97 57.5363 145.006 57.5435C145.029 57.5483 145.052 57.5578 145.071 57.5714C145.091 57.5849 145.108 57.6022 145.121 57.6223L147.937 61.9077C147.957 61.938 147.968 61.9736 147.968 62.01C147.968 62.0464 147.957 62.082 147.937 62.1122C147.92 62.1371 147.898 62.1576 147.872 62.172C147.845 62.1864 147.816 62.1942 147.786 62.1948ZM146.251 63.6068C146.221 63.6072 146.192 63.6 146.166 63.5859C146.139 63.5723 146.117 63.5519 146.1 63.5267L143.282 59.2389C143.266 59.2134 143.256 59.1845 143.253 59.1544C143.251 59.1244 143.255 59.0942 143.267 59.0664C143.279 59.0385 143.297 59.0139 143.32 58.9946C143.343 58.9753 143.371 58.9619 143.4 58.9555C143.424 58.9512 143.448 58.9516 143.472 58.9567C143.519 58.9674 143.559 58.9962 143.585 59.0368L146.403 63.3222C146.417 63.3424 146.426 63.365 146.431 63.3887C146.435 63.4124 146.434 63.4367 146.429 63.4602C146.425 63.4839 146.416 63.5064 146.402 63.5264C146.388 63.5463 146.371 63.5632 146.35 63.576C146.321 63.5965 146.286 63.6073 146.251 63.6068ZM141.229 62.5189C141.199 62.5188 141.169 62.5112 141.143 62.4968C141.117 62.4824 141.094 62.4616 141.078 62.4363L138.26 58.1497C138.244 58.1243 138.234 58.0954 138.232 58.0655C138.23 58.0356 138.234 58.0056 138.246 57.978C138.257 57.9503 138.276 57.9259 138.299 57.9066C138.322 57.8874 138.349 57.874 138.378 57.8675C138.402 57.8631 138.426 57.8634 138.449 57.8685C138.472 57.8736 138.494 57.8833 138.514 57.8971C138.534 57.9101 138.551 57.9273 138.563 57.9476L141.381 62.2342C141.4 62.2616 141.411 62.2936 141.412 62.3266C141.414 62.36 141.407 62.3932 141.391 62.4227C141.375 62.4522 141.352 62.4769 141.324 62.4942C141.295 62.5111 141.262 62.5196 141.229 62.5189ZM72.7581 63.5317C72.7203 63.5319 72.6834 63.5201 72.6528 63.4979C72.6223 63.4758 72.5995 63.4444 72.588 63.4085L72.3255 62.6445C72.3132 62.5998 72.3183 62.552 72.3398 62.5109C72.3613 62.4697 72.3976 62.4382 72.4413 62.4227C72.4852 62.4073 72.5334 62.4092 72.5758 62.4283C72.6182 62.4473 72.6517 62.482 72.6693 62.525L72.9318 63.2889C72.9461 63.3345 72.9421 63.3839 72.9207 63.4266C72.8993 63.4693 72.8622 63.5021 72.8172 63.5181C72.7984 63.5257 72.7784 63.5312 72.7581 63.5317ZM22.8732 39.5505C22.8353 39.5508 22.7983 39.5392 22.7673 39.5173C22.7364 39.4954 22.713 39.4644 22.7007 39.4285C22.688 39.3928 22.6865 39.3541 22.6964 39.3176C22.7063 39.2811 22.7272 39.2484 22.7561 39.224L27.385 35.4352C27.4121 35.4081 27.4472 35.3904 27.4851 35.3846C27.523 35.3788 27.5618 35.3853 27.5957 35.4031C27.624 35.418 27.6479 35.44 27.6652 35.4669C27.6824 35.4938 27.6924 35.5247 27.6941 35.5566C27.6959 35.5885 27.6893 35.6203 27.6751 35.6489C27.6609 35.6775 27.6395 35.7019 27.613 35.7198L22.9817 39.5099C22.9505 39.5349 22.9132 39.5492 22.8732 39.5505ZM26.8169 39.0182C26.7767 39.0211 26.7368 39.0106 26.7033 38.9883C26.6699 38.966 26.6448 38.9332 26.632 38.895C26.619 38.8569 26.6188 38.8155 26.6315 38.7773C26.6442 38.739 26.669 38.7059 26.7023 38.6831L28.1824 37.4337C28.22 37.4104 28.2648 37.4017 28.3084 37.4092C28.352 37.4167 28.3913 37.4399 28.419 37.4744C28.4468 37.5089 28.4612 37.5524 28.4596 37.5967C28.458 37.6411 28.4405 37.6833 28.4104 37.7159L26.9302 38.9739C26.8987 39.0021 26.8592 39.0179 26.8169 39.0182ZM28.0209 53.7288C27.9862 53.7292 27.952 53.7198 27.9223 53.7017C27.8817 53.6754 27.853 53.6342 27.8424 53.5869C27.8318 53.5397 27.8401 53.4902 27.8656 53.4491L28.5767 52.3143C28.596 52.2839 28.6238 52.2599 28.6568 52.2455C28.6897 52.231 28.7262 52.2266 28.7616 52.2329C28.7912 52.2384 28.8191 52.251 28.8427 52.2697C28.8664 52.2884 28.8851 52.3126 28.8972 52.3402C28.9094 52.3678 28.9146 52.3979 28.9124 52.428C28.9103 52.458 28.9008 52.4871 28.8848 52.5126L28.1737 53.6437C28.1577 53.67 28.1353 53.6917 28.1086 53.7068C28.0818 53.7219 28.0516 53.7286 28.0209 53.7288ZM14.4917 64.4841C14.4446 64.4848 14.3991 64.467 14.365 64.4345C14.3309 64.402 14.3109 64.3575 14.3093 64.3104C14.3073 64.2741 14.3161 64.238 14.3345 64.2067C14.3529 64.1753 14.3801 64.1501 14.4128 64.1342C14.4345 64.1239 14.4579 64.1181 14.4818 64.1169L20.4663 63.804C20.4905 63.8023 20.5148 63.8055 20.5377 63.8136C20.5606 63.8216 20.5816 63.8343 20.5994 63.8508C20.6173 63.8672 20.6318 63.8869 20.6419 63.9089C20.6521 63.9309 20.6577 63.9547 20.6586 63.9789C20.6603 64.0272 20.6434 64.0743 20.6112 64.1103C20.5791 64.1464 20.5342 64.1686 20.4861 64.1724L14.5003 64.4841H14.4917ZM15.554 65.8974C15.53 65.8972 15.5062 65.8923 15.484 65.8829C15.4619 65.8735 15.4418 65.8598 15.425 65.8427C15.4081 65.8255 15.3949 65.8051 15.3859 65.7828C15.377 65.7605 15.3725 65.7366 15.3729 65.7126C15.3735 65.6646 15.3927 65.6188 15.4265 65.5847C15.4603 65.5507 15.5061 65.5312 15.554 65.5302L18.6325 65.4119C18.658 65.4083 18.6839 65.41 18.7086 65.4171C18.7332 65.4241 18.7562 65.4363 18.7758 65.4528C18.7955 65.4693 18.8114 65.4898 18.8226 65.5129C18.8338 65.536 18.84 65.5612 18.8408 65.5869C18.8423 65.6256 18.8315 65.6638 18.8101 65.6961C18.7886 65.7284 18.7575 65.7531 18.7213 65.7668C18.6973 65.7757 18.6717 65.7795 18.6461 65.7779L15.5688 65.8974H15.554ZM16.869 67.6446C16.8449 67.6454 16.8209 67.6414 16.7983 67.6328C16.7758 67.6242 16.7552 67.6112 16.7378 67.5946C16.7203 67.578 16.7064 67.558 16.6967 67.5359C16.6871 67.5138 16.682 67.49 16.6817 67.4659C16.6806 67.4177 16.6985 67.371 16.7314 67.3358C16.7643 67.3006 16.8097 67.2796 16.8579 67.2774L18.3343 67.1714C18.3593 67.1674 18.385 67.1687 18.4095 67.1752C18.434 67.1817 18.4568 67.1933 18.4766 67.2092C18.4963 67.2252 18.5125 67.245 18.5241 67.2676C18.5357 67.2902 18.5424 67.3149 18.5438 67.3402C18.5455 67.3655 18.542 67.3909 18.5334 67.4147C18.5249 67.4386 18.5116 67.4605 18.4942 67.479C18.4769 67.4974 18.4559 67.5122 18.4327 67.5222C18.4094 67.5323 18.3843 67.5374 18.3589 67.5374L16.8838 67.6446H16.8714H16.869ZM151.4 33.3861C151.365 33.386 151.331 33.376 151.302 33.3572C151.272 33.3385 151.249 33.3117 151.234 33.2802L149.095 28.6177C149.075 28.5737 149.073 28.5236 149.09 28.4783C149.107 28.4329 149.14 28.3958 149.184 28.375C149.228 28.3555 149.277 28.3539 149.323 28.3704C149.368 28.387 149.404 28.4204 149.425 28.4637L151.565 33.1261C151.585 33.1704 151.587 33.2209 151.57 33.2666C151.553 33.3123 151.519 33.3495 151.475 33.3701C151.451 33.3809 151.426 33.3863 151.4 33.3861Z" fill="#171926"/>
    <path style="mix-blend-mode:overlay" opacity="0.42" d="M13.263 63.0289C13.263 63.0289 25.7693 34.6871 158.827 33.142L160.033 28.4821L20.8459 33.7212L13.263 63.0289Z" fill="url(#paint3_linear_805_40)"/>
    <defs>
        <linearGradient id="paint0_linear_805_40" x1="134.492" y1="0.478027" x2="38.0942" y2="89.5422" gradientUnits="userSpaceOnUse">
            <stop stop-color="#FF6B00"/>
            <stop offset="1" stop-color="#FF8700"/>
        </linearGradient>
        <linearGradient id="paint1_linear_805_40" x1="13.3517" y1="60.4699" x2="156.86" y2="65.5139" gradientUnits="userSpaceOnUse">
            <stop stop-color="#FF6B00"/>
            <stop offset="1" stop-color="#AB4500"/>
        </linearGradient>
        <linearGradient id="paint2_linear_805_40" x1="166.487" y1="54.4187" x2="150.35" y2="37.2344" gradientUnits="userSpaceOnUse">
            <stop stop-color="#FF6B00"/>
            <stop offset="1" stop-color="#A14100"/>
        </linearGradient>
        <linearGradient id="paint3_linear_805_40" x1="65.0371" y1="8.01376" x2="99.7061" y2="67.5706" gradientUnits="userSpaceOnUse">
            <stop stop-color="white"/>
            <stop offset="1" stop-color="white" stop-opacity="0"/>
        </linearGradient>
    </defs>
</svg>